<svg width="40" height="40" viewBox="0 0 40 40" fill="none" xmlns="http://www.w3.org/2000/svg">
<path fill-rule="evenodd" clip-rule="evenodd" d="M15.808 20.744C16.224 20.744 17.1408 20.904 17.1408 22.0896C17.1408 23.2744 15.9744 23.3384 15.808 23.3384H13.8912V20.744H15.808Z" fill="white"/>
<path fill-rule="evenodd" clip-rule="evenodd" d="M16.7721 17.5856C16.7721 18.4848 15.9697 18.6368 15.7289 18.6368H13.9633V16.6216H15.5681C15.7289 16.6224 16.7721 16.6856 16.7721 17.5856Z" fill="white"/>
<path fill-rule="evenodd" clip-rule="evenodd" d="M26.0752 18.4144C26.6728 18.4248 27.004 18.564 27.2768 18.8128C27.5504 19.0624 27.7136 19.4608 27.7688 19.96H24.2728C24.2512 19.1552 25.2184 18.3992 26.0752 18.4144Z" fill="white"/>
<path fill-rule="evenodd" clip-rule="evenodd" d="M28.4816 5.25281C31.9976 5.25281 34.848 8.09281 34.848 11.596V28.5568C34.848 32.06 31.9976 34.9 28.4816 34.9H11.4584C7.94244 34.9 5.09204 32.06 5.09204 28.5568V11.596C5.09204 8.09281 7.94244 5.25281 11.4584 5.25281H28.4816ZM23.5808 13.9288C23.2032 13.9288 22.8984 14.2264 22.8984 14.5928C22.8984 14.9592 23.204 15.2568 23.5808 15.2568H27.6768C28.0544 15.2568 28.3592 14.9592 28.3592 14.5928C28.3592 14.2264 28.0536 13.9288 27.6768 13.9288H23.5808ZM16.3192 25.3688C16.7456 25.368 19.9456 25.2408 19.9456 22.2888C19.9456 20.384 18.772 19.76 18.1328 19.5408C18.5584 19.3216 19.2728 18.768 19.2728 17.288C19.2728 14.504 16.6392 14.5944 16.1064 14.5944H11.2V25.3696L16.3192 25.3688ZM30.0576 21.9904C30.1424 19.6256 29.6336 16.5856 25.9888 16.5856C24.9576 16.5856 21.92 17.0536 21.92 20.9768C21.92 24.6064 24.728 25.368 26.1032 25.368C28.1888 25.368 29.564 23.928 29.9456 22.6664H27.788C27.4808 22.9992 27.008 23.3288 26.336 23.3288C24.98 23.3288 24.6328 21.9896 24.6328 21.9896H28.2408V21.9904H30.0576C30.0576 21.9912 30.0576 21.9912 30.0576 21.9904Z" fill="white"/>
</svg>
