<svg width="40" height="40" viewBox="0 0 40 40" fill="none" xmlns="http://www.w3.org/2000/svg">
<path d="M28.3333 5H11.6667C7.985 5 5 7.985 5 11.6667V28.3333C5 32.015 7.985 35 11.6667 35H21.035V23.3983H17.13V18.8567H21.035V15.515C21.035 11.6417 23.4033 9.53 26.86 9.53C28.025 9.52667 29.1883 9.58667 30.3467 9.705V13.755H27.9667C26.0833 13.755 25.7167 14.645 25.7167 15.9583V18.85H30.2167L29.6317 23.3917H25.69V35H28.3333C32.015 35 35 32.015 35 28.3333V11.6667C35 7.985 32.015 5 28.3333 5Z" fill="white"/>
</svg>
