<svg width="27" height="27" viewBox="0 0 27 27" fill="none" xmlns="http://www.w3.org/2000/svg">
<path d="M20.2682 13.8953C20.1126 13.7396 19.9279 13.6162 19.7246 13.5319C19.5213 13.4477 19.3034 13.4043 19.0834 13.4043C18.8633 13.4043 18.6454 13.4477 18.4421 13.5319C18.2389 13.6162 18.0542 13.7396 17.8986 13.8953L15.1751 16.6189V6.8C15.1751 6.35576 14.9986 5.92972 14.6845 5.6156C14.3703 5.30147 13.9443 5.125 13.5001 5.125C13.0558 5.125 12.6298 5.30147 12.3156 5.6156C12.0015 5.92972 11.8251 6.35576 11.8251 6.8V16.6189L9.1015 13.8953C8.78743 13.5811 8.36139 13.4045 7.91711 13.4044C7.47284 13.4043 7.04672 13.5807 6.73249 13.8947C6.41827 14.2088 6.24168 14.6349 6.24158 15.0791C6.24147 15.5234 6.41786 15.9495 6.73194 16.2638L10.7363 20.2681C11.0992 20.6311 11.5301 20.919 12.0043 21.1154C12.4785 21.3119 12.9868 21.413 13.5001 21.413C14.0133 21.413 14.5216 21.3119 14.9958 21.1154C15.47 20.919 15.9009 20.6311 16.2638 20.2681L20.2682 16.2638C20.5822 15.9496 20.7586 15.5237 20.7586 15.0795C20.7586 14.6354 20.5822 14.2094 20.2682 13.8953Z" fill="white"/>
</svg>
