<svg width="30" height="30" viewBox="0 0 30 30" fill="none" xmlns="http://www.w3.org/2000/svg">
<g clip-path="url(#clip0_134_507)">
<path d="M15 18.7397C12.9289 18.7397 11.25 20.4187 11.25 22.4897V29.9897H18.75V22.4897C18.75 20.4187 17.0711 18.7397 15 18.7397Z" fill="white"/>
<path d="M21.25 22.4903V29.9903H26.25C28.3211 29.9903 30 28.3113 30 26.2403V14.839C30.0003 14.1896 29.7479 13.5656 29.2962 13.099L18.6738 1.61524C16.7995 -0.412687 13.6361 -0.537199 11.6082 1.3371C11.5119 1.42616 11.419 1.51891 11.33 1.61524L0.72627 13.0953C0.260918 13.5638 -0.000175693 14.1974 8.87009e-08 14.8578V26.2403C8.87009e-08 28.3113 1.67895 29.9903 3.75 29.9903H8.74998V22.4903C8.77336 19.0817 11.5253 16.2983 14.848 16.2182C18.2818 16.1353 21.2238 18.9661 21.25 22.4903Z" fill="white"/>
<path d="M15 18.7397C12.9289 18.7397 11.25 20.4187 11.25 22.4897V29.9897H18.75V22.4897C18.75 20.4187 17.0711 18.7397 15 18.7397Z" fill="white"/>
</g>
<defs>
<clipPath id="clip0_134_507">
<rect width="30" height="30" fill="white"/>
</clipPath>
</defs>
</svg>
