<svg width="27" height="27" viewBox="0 0 27 27" fill="none" xmlns="http://www.w3.org/2000/svg">
<path d="M20.1682 13.7952C20.0126 13.6396 19.8279 13.5161 19.6247 13.4318C19.4214 13.3476 19.2035 13.3042 18.9834 13.3042C18.7634 13.3042 18.5455 13.3476 18.3422 13.4318C18.1389 13.5161 17.9542 13.6396 17.7986 13.7952L15.0751 16.5188V6.6999C15.0751 6.25566 14.8986 5.82962 14.5845 5.5155C14.2704 5.20137 13.8443 5.0249 13.4001 5.0249C12.9558 5.0249 12.5298 5.20137 12.2157 5.5155C11.9015 5.82962 11.7251 6.25566 11.7251 6.6999V16.5188L9.00153 13.7952C8.68745 13.481 8.26141 13.3044 7.81714 13.3043C7.37286 13.3042 6.94674 13.4806 6.63252 13.7946C6.31829 14.1087 6.14171 14.5348 6.1416 14.979C6.1415 15.4233 6.31788 15.8494 6.63196 16.1637L10.6363 20.168C10.9993 20.531 11.4301 20.8189 11.9043 21.0153C12.3785 21.2118 12.8868 21.3129 13.4001 21.3129C13.9134 21.3129 14.4216 21.2118 14.8958 21.0153C15.37 20.8189 15.8009 20.531 16.1638 20.168L20.1682 16.1637C20.4822 15.8495 20.6586 15.4236 20.6586 14.9794C20.6586 14.5353 20.4822 14.1093 20.1682 13.7952V13.7952Z" fill="#023047"/>
</svg>
