<svg width="20" height="20" viewBox="0 0 20 20" fill="none" xmlns="http://www.w3.org/2000/svg">
<g clip-path="url(#clip0_185_144)">
<path d="M19.9617 4.61816L12.9467 11.6332C12.1645 12.4134 11.1048 12.8515 10 12.8515C8.89521 12.8515 7.83552 12.4134 7.05333 11.6332L0.0383333 4.61816C0.0266667 4.74983 0 4.869 0 4.99983V14.9998C0.00132321 16.1045 0.440735 17.1635 1.22185 17.9446C2.00296 18.7258 3.062 19.1652 4.16667 19.1665H15.8333C16.938 19.1652 17.997 18.7258 18.7782 17.9446C19.5593 17.1635 19.9987 16.1045 20 14.9998V4.99983C20 4.869 19.9733 4.74983 19.9617 4.61816Z" fill="#FFB703"/>
<path d="M11.7683 10.4549L19.38 2.84242C19.0113 2.23102 18.4912 1.72495 17.87 1.37303C17.2487 1.0211 16.5473 0.835203 15.8333 0.833252H4.16666C3.45268 0.835203 2.75125 1.0211 2.13002 1.37303C1.50879 1.72495 0.988727 2.23102 0.619995 2.84242L8.23166 10.4549C8.70131 10.9227 9.33715 11.1853 10 11.1853C10.6628 11.1853 11.2987 10.9227 11.7683 10.4549V10.4549Z" fill="#FFB703"/>
</g>
<defs>
<clipPath id="clip0_185_144">
<rect width="20" height="20" fill="white"/>
</clipPath>
</defs>
</svg>
