<svg width="30" height="30" viewBox="0 0 30 30" fill="none" xmlns="http://www.w3.org/2000/svg">
<g clip-path="url(#clip0_61_343)">
<path d="M15 0C12.0333 0 9.13319 0.879735 6.66645 2.52796C4.19972 4.17618 2.27713 6.51886 1.14181 9.25975C0.00649929 12.0006 -0.290551 15.0166 0.288228 17.9264C0.867006 20.8361 2.29562 23.5088 4.39341 25.6066C6.49119 27.7044 9.16394 29.133 12.0737 29.7118C14.9834 30.2906 17.9994 29.9935 20.7403 28.8582C23.4812 27.7229 25.8238 25.8003 27.4721 23.3336C29.1203 20.8668 30 17.9667 30 15C29.9957 11.0231 28.414 7.21026 25.6019 4.39815C22.7897 1.58604 18.9769 0.00430135 15 0V0ZM7.50001 12.5C7.50001 11.837 7.7634 11.2011 8.23224 10.7322C8.70108 10.2634 9.33697 10 10 10C10.663 10 11.2989 10.2634 11.7678 10.7322C12.2366 11.2011 12.5 11.837 12.5 12.5C12.5 13.75 11.3813 13.75 10 13.75C8.61876 13.75 7.50001 13.75 7.50001 12.5ZM21.2163 19.1063C20.7734 20.4177 19.9428 21.5639 18.8344 22.3931C17.726 23.2223 16.3919 23.6954 15.0088 23.75C13.627 23.6901 12.2955 23.2149 11.1881 22.3865C10.0806 21.558 9.24881 20.4148 8.80126 19.1063C8.74578 18.9197 8.73464 18.7227 8.76874 18.5311C8.80283 18.3394 8.88122 18.1584 8.99764 18.0024C9.11407 17.8464 9.26531 17.7197 9.43934 17.6325C9.61336 17.5453 9.80535 17.4999 10 17.5H20.0125C20.2059 17.5042 20.3957 17.5522 20.5677 17.6406C20.7398 17.729 20.8894 17.8553 21.0054 18.0101C21.1214 18.1648 21.2006 18.344 21.2372 18.5339C21.2737 18.7238 21.2665 18.9195 21.2163 19.1063ZM20 13.75C18.6188 13.75 17.5 13.75 17.5 12.5C17.5 11.837 17.7634 11.2011 18.2322 10.7322C18.7011 10.2634 19.337 10 20 10C20.663 10 21.2989 10.2634 21.7678 10.7322C22.2366 11.2011 22.5 11.837 22.5 12.5C22.5 13.75 21.3813 13.75 20 13.75Z" fill="#023047"/>
</g>
<defs>
<clipPath id="clip0_61_343">
<rect width="30" height="30" fill="white"/>
</clipPath>
</defs>
</svg>
