<svg width="20" height="20" viewBox="0 0 20 20" fill="none" xmlns="http://www.w3.org/2000/svg">
<g clip-path="url(#clip0_58_303)">
<path d="M13.1217 15.2119C13.1217 13.9619 12.2625 12.2536 10.705 10.4011C10.6188 10.2982 10.5108 10.2158 10.3889 10.1598C10.267 10.1037 10.1342 10.0754 10 10.0769V10.0769C9.86483 10.0763 9.73115 10.1051 9.60825 10.1614C9.48535 10.2176 9.37618 10.3 9.28833 10.4027C7.58333 12.4002 6.75 14.1669 6.89416 15.5211C6.9509 15.9492 7.09772 16.3605 7.32496 16.7278C7.55219 17.0951 7.85468 17.41 8.2125 17.6519C8.71865 18.0669 9.34601 18.3062 10 18.3336C10.8276 18.3327 11.6211 18.0035 12.2064 17.4183C12.7916 16.833 13.1208 16.0395 13.1217 15.2119Z" fill="#FFB703"/>
<path d="M13.8575 2.41705C13.2025 1.86039 12.515 1.27705 11.815 0.640385C11.5496 0.399411 11.2347 0.219362 10.8924 0.112842C10.5501 0.00632137 10.1886 -0.0240962 9.83333 0.0237185C9.48898 0.0693239 9.15885 0.189985 8.86625 0.377178C8.57366 0.564371 8.32573 0.813529 8.13999 1.10705C7.14699 2.76691 6.44467 4.58413 6.06333 6.48039C5.91413 6.26435 5.78153 6.03731 5.66666 5.80122C5.54871 5.55271 5.37108 5.33725 5.14962 5.17408C4.92816 5.0109 4.66975 4.90508 4.39745 4.86605C4.12515 4.82702 3.84743 4.856 3.58905 4.95039C3.33067 5.04479 3.09967 5.20168 2.91666 5.40705C1.51942 6.83572 0.744881 8.75962 0.762495 10.7579C0.743172 12.7991 1.40702 14.7881 2.64842 16.4085C3.88983 18.029 5.63747 19.1877 7.61333 19.7004C8.36985 19.8907 9.14657 19.9892 9.92666 19.9937C8.92977 19.9566 7.9716 19.5982 7.19499 18.9721C6.657 18.5934 6.20464 18.1059 5.86726 17.5411C5.52989 16.9763 5.31504 16.3469 5.23666 15.6937C5.04499 13.8521 5.98083 11.7079 8.01833 9.32122C8.26276 9.03469 8.56662 8.8048 8.90883 8.64751C9.25103 8.49022 9.62337 8.40931 9.99999 8.41039H10.0083C10.3838 8.41069 10.7548 8.49287 11.0953 8.65118C11.4358 8.80949 11.7377 9.04014 11.98 9.32705C13.2617 10.8496 14.7908 13.1062 14.7908 15.2112C14.789 16.4243 14.327 17.5915 13.4982 18.4773C12.6693 19.3631 11.5353 19.9014 10.325 19.9837C12.718 19.9066 14.9871 18.901 16.6515 17.1798C18.3159 15.4587 19.2449 13.1572 19.2417 10.7629C19.2375 6.98788 16.7442 4.87122 13.8575 2.41705Z" fill="#FFB703"/>
</g>
<defs>
<clipPath id="clip0_58_303">
<rect width="20" height="20" fill="white"/>
</clipPath>
</defs>
</svg>
