<svg width="30" height="30" viewBox="0 0 30 30" fill="none" xmlns="http://www.w3.org/2000/svg">
<path d="M19.6826 22.8178C19.6826 20.9428 18.3939 18.3803 16.0576 15.6016C15.9283 15.4473 15.7664 15.3237 15.5835 15.2396C15.4006 15.1555 15.2014 15.1131 15.0001 15.1153V15.1153C14.7974 15.1144 14.5968 15.1576 14.4125 15.242C14.2282 15.3264 14.0644 15.45 13.9326 15.6041C11.3751 18.6003 10.1251 21.2503 10.3414 23.2816C10.4265 23.9238 10.6467 24.5407 10.9876 25.0916C11.3284 25.6426 11.7821 26.115 12.3189 26.4778C13.0781 27.1004 14.0191 27.4592 15.0001 27.5003C16.2416 27.499 17.4318 27.0052 18.3097 26.1274C19.1875 25.2495 19.6813 24.0593 19.6826 22.8178Z" fill="#023047"/>
<path d="M20.7862 3.62558C19.8037 2.79058 18.7724 1.91558 17.7224 0.960578C17.3243 0.599117 16.852 0.329044 16.3385 0.169263C15.825 0.00948206 15.2829 -0.0361443 14.7499 0.0355778C14.2334 0.103986 13.7382 0.284977 13.2993 0.565767C12.8604 0.846556 12.4885 1.22029 12.2099 1.66058C10.7204 4.15037 9.66695 6.8762 9.09493 9.72058C8.87114 9.39652 8.67223 9.05596 8.49993 8.70183C8.32301 8.32906 8.05656 8.00588 7.72437 7.76112C7.39218 7.51635 7.00457 7.35762 6.59612 7.29907C6.18767 7.24053 5.77108 7.28399 5.38351 7.42559C4.99594 7.56719 4.64944 7.80252 4.37493 8.11058C2.27906 10.2536 1.11726 13.1394 1.14368 16.1368C1.1147 19.1986 2.11047 22.1822 3.97257 24.6128C5.83468 27.0434 8.45615 28.7815 11.4199 29.5506C12.5547 29.8361 13.7198 29.9838 14.8899 29.9906C13.3946 29.9348 11.9573 29.3973 10.7924 28.4581C9.98544 27.8901 9.3069 27.1588 8.80084 26.3117C8.29477 25.4645 7.9725 24.5204 7.85493 23.5406C7.56743 20.7781 8.97118 17.5618 12.0274 13.9818C12.3941 13.552 12.8499 13.2072 13.3632 12.9713C13.8765 12.7353 14.435 12.614 14.9999 12.6156H15.0124C15.5757 12.616 16.1321 12.7393 16.6429 12.9768C17.1537 13.2142 17.6065 13.5602 17.9699 13.9906C19.8924 16.2743 22.1862 19.6593 22.1862 22.8168C22.1834 24.6365 21.4905 26.3873 20.2472 27.7159C19.0039 29.0446 17.3029 29.8521 15.4874 29.9756C19.077 29.8599 22.4806 28.3515 24.9771 25.7697C27.4737 23.188 28.8672 19.7358 28.8624 16.1443C28.8562 10.4818 25.1162 7.30683 20.7862 3.62558Z" fill="#023047"/>
</svg>
