<svg width="24" height="24" viewBox="0 0 24 24" fill="none" xmlns="http://www.w3.org/2000/svg">
<g clip-path="url(#clip0_93_485)">
<path d="M15.989 12.7003V10.0003C15.989 9.73509 16.0943 9.48074 16.2819 9.2932C16.4694 9.10567 16.7238 9.00031 16.989 9.00031H17.989C18.2542 9.00031 18.5085 8.89495 18.6961 8.70742C18.8836 8.51988 18.989 8.26553 18.989 8.00031V7.00031C18.989 6.73509 19.0943 6.48074 19.2819 6.2932C19.4694 6.10567 19.7238 6.00031 19.989 6.00031H22.674C22.869 5.99936 23.0597 5.94228 23.2232 5.83588C23.3867 5.72949 23.5161 5.57828 23.596 5.40031C23.9337 4.65648 24.0637 3.83506 23.972 3.02331C23.8577 2.17814 23.438 1.40403 22.7921 0.847101C22.1462 0.290173 21.3188 -0.0110432 20.466 0.000309599C19.2627 0.000385697 18.1088 0.47844 17.258 1.32931L9.34998 9.23531C8.07527 8.90416 6.7351 8.92074 5.46898 9.28331C3.72703 9.77589 2.22203 10.8819 1.23168 12.3972C0.241329 13.9125 -0.167533 15.7349 0.0805405 17.5281C0.328614 19.3213 1.21688 20.9642 2.58143 22.1537C3.94598 23.3433 5.69473 23.9991 7.50498 24.0003C7.76684 24.0001 8.02852 23.9864 8.28898 23.9593C9.77913 23.7971 11.1869 23.1937 12.3321 22.2265C13.4773 21.2593 14.3077 19.9723 14.717 18.5303C15.0807 17.2647 15.0969 15.9244 14.764 14.6503L15.414 14.0003C15.7596 13.6529 15.9645 13.1898 15.989 12.7003ZM5.49998 20.0003C5.20331 20.0003 4.9133 19.9123 4.66662 19.7475C4.41995 19.5827 4.22769 19.3484 4.11416 19.0743C4.00063 18.8002 3.97092 18.4986 4.0288 18.2077C4.08668 17.9167 4.22954 17.6494 4.43932 17.4396C4.6491 17.2299 4.91637 17.087 5.20734 17.0291C5.49831 16.9713 5.79991 17.001 6.074 17.1145C6.34809 17.228 6.58236 17.4203 6.74718 17.667C6.912 17.9136 6.99998 18.2036 6.99998 18.5003C6.99998 18.8981 6.84194 19.2797 6.56064 19.561C6.27933 19.8423 5.8978 20.0003 5.49998 20.0003Z" fill="white"/>
</g>
<defs>
<clipPath id="clip0_93_485">
<rect width="24" height="24" fill="white"/>
</clipPath>
</defs>
</svg>
