<svg width="20" height="20" viewBox="0 0 20 20" fill="none" xmlns="http://www.w3.org/2000/svg">
<g clip-path="url(#clip0_16_41)">
<path d="M19.9617 4.61823L12.9467 11.6332C12.1645 12.4134 11.1048 12.8516 10 12.8516C8.89521 12.8516 7.83552 12.4134 7.05333 11.6332L0.0383333 4.61823C0.0266667 4.74989 0 4.86906 0 4.99989V14.9999C0.00132321 16.1046 0.440735 17.1636 1.22185 17.9447C2.00296 18.7258 3.062 19.1652 4.16667 19.1666H15.8333C16.938 19.1652 17.997 18.7258 18.7782 17.9447C19.5593 17.1636 19.9987 16.1046 20 14.9999V4.99989C20 4.86906 19.9733 4.74989 19.9617 4.61823Z" fill="white"/>
<path d="M11.7683 10.4549L19.38 2.84236C19.0113 2.23096 18.4912 1.72489 17.87 1.37297C17.2487 1.02104 16.5473 0.835141 15.8333 0.833191H4.16666C3.45268 0.835141 2.75125 1.02104 2.13002 1.37297C1.50879 1.72489 0.988727 2.23096 0.619995 2.84236L8.23166 10.4549C8.70131 10.9226 9.33715 11.1852 10 11.1852C10.6628 11.1852 11.2987 10.9226 11.7683 10.4549V10.4549Z" fill="white"/>
</g>
<defs>
<clipPath id="clip0_16_41">
<rect width="20" height="20" fill="white"/>
</clipPath>
</defs>
</svg>
