<svg width="176" height="25" viewBox="0 0 176 25" fill="none" xmlns="http://www.w3.org/2000/svg">
<path d="M0.5 24.5V1.22727H10.5455C12.2727 1.22727 13.7841 1.56818 15.0795 2.25C16.375 2.93182 17.3826 3.89015 18.1023 5.125C18.822 6.35985 19.1818 7.80303 19.1818 9.45455C19.1818 11.1212 18.8106 12.5644 18.0682 13.7841C17.3333 15.0038 16.2992 15.9432 14.9659 16.6023C13.6402 17.2614 12.0909 17.5909 10.3182 17.5909H4.31818V12.6818H9.04545C9.78788 12.6818 10.4205 12.553 10.9432 12.2955C11.4735 12.0303 11.8788 11.6553 12.1591 11.1705C12.447 10.6856 12.5909 10.1136 12.5909 9.45455C12.5909 8.78788 12.447 8.2197 12.1591 7.75C11.8788 7.27273 11.4735 6.90909 10.9432 6.65909C10.4205 6.40151 9.78788 6.27273 9.04545 6.27273H6.81818V24.5H0.5ZM27.8182 1.22727V24.5H21.5V1.22727H27.8182ZM37.5852 1.22727L41.4034 8H41.5852L45.4489 1.22727H52.4943L45.5398 12.8636L52.767 24.5H45.5398L41.5852 17.5909H41.4034L37.4489 24.5H30.267L37.4034 12.8636L30.4943 1.22727H37.5852ZM55.2188 24.5V1.22727H71.9915V6.31818H61.5369V10.3182H71.1278V15.4091H61.5369V19.4091H71.946V24.5H55.2188ZM75.125 24.5V1.22727H81.4432V19.4091H90.8523V24.5H75.125ZM114.895 8.90909C114.796 8.50758 114.641 8.1553 114.429 7.85227C114.217 7.54167 113.952 7.2803 113.634 7.06818C113.323 6.84848 112.959 6.68561 112.543 6.57954C112.134 6.46591 111.683 6.40909 111.19 6.40909C110.13 6.40909 109.224 6.66288 108.474 7.17045C107.732 7.67803 107.164 8.40909 106.77 9.36364C106.384 10.3182 106.19 11.4697 106.19 12.8182C106.19 14.1818 106.376 15.3485 106.747 16.3182C107.118 17.2879 107.671 18.0303 108.406 18.5455C109.141 19.0606 110.054 19.3182 111.145 19.3182C112.107 19.3182 112.906 19.178 113.543 18.8977C114.187 18.6174 114.668 18.2197 114.986 17.7045C115.304 17.1894 115.463 16.5833 115.463 15.8864L116.554 16H111.236V11.5H121.554V14.7273C121.554 16.8485 121.103 18.6629 120.202 20.1705C119.308 21.6705 118.073 22.822 116.497 23.625C114.929 24.4205 113.13 24.8182 111.099 24.8182C108.834 24.8182 106.846 24.3371 105.134 23.375C103.421 22.4129 102.084 21.0417 101.122 19.2614C100.168 17.4811 99.6903 15.3636 99.6903 12.9091C99.6903 10.9848 99.982 9.2803 100.565 7.79545C101.156 6.31061 101.974 5.05682 103.02 4.03409C104.065 3.00379 105.274 2.22727 106.645 1.70454C108.016 1.17424 109.486 0.90909 111.054 0.90909C112.433 0.90909 113.713 1.10606 114.895 1.5C116.084 1.88636 117.134 2.43939 118.043 3.15909C118.959 3.87121 119.698 4.71591 120.259 5.69318C120.819 6.67045 121.16 7.74242 121.281 8.90909H114.895ZM124.5 24.5V1.22727H134.545C136.273 1.22727 137.784 1.54167 139.08 2.17045C140.375 2.79924 141.383 3.70455 142.102 4.88636C142.822 6.06818 143.182 7.48485 143.182 9.13636C143.182 10.803 142.811 12.2083 142.068 13.3523C141.333 14.4962 140.299 15.3598 138.966 15.9432C137.64 16.5265 136.091 16.8182 134.318 16.8182H128.318V11.9091H133.045C133.788 11.9091 134.42 11.8182 134.943 11.6364C135.473 11.447 135.879 11.1477 136.159 10.7386C136.447 10.3295 136.591 9.79545 136.591 9.13636C136.591 8.4697 136.447 7.92803 136.159 7.51136C135.879 7.08712 135.473 6.77651 134.943 6.57954C134.42 6.375 133.788 6.27273 133.045 6.27273H130.818V24.5H124.5ZM138.136 13.8182L143.955 24.5H137.091L131.409 13.8182H138.136ZM152.193 1.22727V24.5H145.875V1.22727H152.193ZM164.142 24.5H155.188V1.22727H164.051C166.445 1.22727 168.513 1.69318 170.256 2.625C172.006 3.54924 173.354 4.88257 174.301 6.625C175.256 8.35985 175.733 10.4394 175.733 12.8636C175.733 15.2879 175.259 17.3712 174.312 19.1136C173.366 20.8485 172.025 22.1818 170.29 23.1136C168.555 24.0379 166.506 24.5 164.142 24.5ZM161.506 19.1364H163.915C165.066 19.1364 166.047 18.9508 166.858 18.5795C167.676 18.2083 168.297 17.5682 168.722 16.6591C169.153 15.75 169.369 14.4848 169.369 12.8636C169.369 11.2424 169.15 9.97727 168.71 9.06818C168.278 8.15909 167.642 7.51894 166.801 7.14773C165.968 6.77651 164.945 6.59091 163.733 6.59091H161.506V19.1364Z" fill="#023047"/>
</svg>
